<?xml version="1.0" standalone="no"?>
<!DOCTYPE svg PUBLIC "-//W3C//DTD SVG 20010904//EN"
 "https://www.w3.org/TR/2001/REC-SVG-20010904/DTD/svg10.dtd">
<svg version="1.0" xmlns="https://www.w3.org/2000/svg"
 width="450.000000pt" height="450.000000pt" viewBox="0 0 450.000000 450.000000"
 preserveAspectRatio="xMidYMid meet">
<metadata>
Created by potrace 1.11, written by Peter Selinger 2001-2013
</metadata>
<g transform="translate(0.000000,450.000000) scale(0.100000,-0.100000)"
fill="#000000" stroke="none">
<path d="M2060 4120 c-138 -14 -262 -38 -255 -51 3 -4 -3 -5 -14 -2 -39 10
-441 -143 -441 -168 0 -5 -5 -9 -12 -9 -60 0 -488 -340 -474 -377 3 -8 2 -12
-3 -9 -15 10 -107 -102 -193 -234 -147 -226 -241 -477 -282 -753 -21 -141 -21
-414 -1 -545 15 -94 40 -212 52 -242 3 -8 7 -20 8 -26 10 -44 65 -186 104
-269 236 -498 687 -871 1218 -1009 108 -28 259 -56 306 -56 25 0 28 2 17 15
-7 8 -15 13 -19 11 -3 -2 -12 7 -18 21 -10 20 -4 17 32 -16 l45 -41 136 0
c582 0 1139 281 1492 753 186 249 312 546 354 834 l12 83 -44 45 c-24 24 -41
48 -37 51 4 4 7 2 7 -4 0 -7 3 -11 8 -10 4 2 9 -1 12 -7 2 -5 14 -20 25 -33
l20 -24 6 24 c23 80 0 458 -37 603 -41 164 -148 440 -167 428 -6 -3 -7 -1 -3
5 8 13 -82 166 -156 268 -75 102 -309 329 -416 404 -381 267 -825 385 -1282
340z m-70 -560 c0 -5 -8 -10 -17 -10 -15 0 -16 2 -3 10 19 12 20 12 20 0z
m111 -27 l24 -28 -30 25 c-16 14 -32 26 -34 28 -2 1 0 2 6 2 5 0 20 -12 34
-27z m-181 2 c0 -1 -10 -5 -23 -7 -14 -3 -24 0 -24 7 0 7 10 10 24 7 13 -2 23
-6 23 -7z m-70 -19 c0 -2 -11 -6 -25 -8 -13 -3 -22 -1 -19 3 5 9 44 13 44 5z
m-70 -20 c0 -2 -11 -6 -25 -8 -14 -3 -25 -1 -25 3 0 5 11 9 25 9 14 0 25 -2
25 -4z m-80 -20 c0 -2 -9 -6 -20 -9 -11 -3 -18 -1 -14 4 5 9 34 13 34 5z m-63
-22 c-3 -3 -12 -4 -19 -1 -8 3 -5 6 6 6 11 1 17 -2 13 -5z m1175 -224 l-3
-201 193 1 193 2 5 -209 c3 -114 4 -210 3 -212 -2 -2 -5 5 -8 15 -3 10 -24 56
-47 102 -69 138 -196 243 -353 292 -91 29 -243 32 -330 6 -264 -78 -449 -318
-446 -578 1 -86 11 -140 41 -222 22 -57 106 -192 135 -216 16 -14 16 -15 -6
-22 -21 -5 -20 -6 7 -5 21 1 50 -12 89 -38 33 -21 98 -52 145 -69 74 -26 99
-30 190 -29 88 0 118 4 185 27 44 15 101 41 126 57 25 16 50 29 54 29 5 0 26
-17 47 -37 32 -32 38 -43 38 -81 0 -55 16 -85 79 -147 l51 -49 0 -102 c0 -102
0 -102 -31 -128 l-31 -26 -679 0 -679 0 -32 29 -33 29 -3 264 c-1 145 -6 262
-10 261 -4 -1 -55 -14 -115 -30 -82 -21 -111 -25 -125 -17 -21 13 -28 50 -13
68 6 7 64 28 129 46 64 18 121 36 125 40 9 8 16 170 8 170 -3 0 -71 -19 -152
-42 -81 -22 -154 -38 -162 -35 -23 9 -36 39 -27 63 7 17 38 29 162 64 84 24
159 46 166 50 16 8 23 150 7 150 -5 0 -90 -23 -188 -51 -171 -48 -179 -50
-198 -33 -27 24 -25 62 4 75 13 6 106 34 206 63 l183 52 0 85 c-1 46 -4 83 -9
83 -4 -1 -97 -27 -207 -58 -209 -59 -235 -63 -254 -44 -16 16 -15 53 1 66 6 6
109 38 227 71 118 34 221 65 228 69 10 5 14 31 15 80 1 39 0 72 -3 72 -3 0
-115 -32 -250 -70 -139 -40 -255 -68 -267 -65 -29 7 -41 51 -20 72 8 8 131 48
272 89 142 40 260 76 264 79 3 3 4 41 2 84 -3 101 5 145 36 175 29 29 30 29
728 34 l340 2 -3 -200z m-1315 184 c-3 -3 -12 -4 -19 -1 -8 3 -5 6 6 6 11 1
17 -2 13 -5z m1508 -181 c96 -97 174 -178 172 -180 -2 -2 -58 50 -123 116
-198 198 -239 241 -231 241 4 0 86 -79 182 -177z m-1575 163 c0 -2 -11 -6 -25
-8 -14 -3 -25 -1 -25 3 0 5 11 9 25 9 14 0 25 -2 25 -4z m-110 -26 c0 -5 -5
-10 -11 -10 -5 0 -7 5 -4 10 3 6 8 10 11 10 2 0 4 -4 4 -10z m-33 -16 c-3 -3
-12 -4 -19 -1 -8 3 -5 6 6 6 11 1 17 -2 13 -5z m-77 -18 c0 -2 -9 -6 -20 -9
-11 -3 -18 -1 -14 4 5 9 34 13 34 5z m-85 -26 c-27 -12 -43 -12 -25 0 8 5 22
9 30 9 10 0 8 -3 -5 -9z m-58 -16 c-3 -3 -12 -4 -19 -1 -8 3 -5 6 6 6 11 1 17
-2 13 -5z m-152 -44 c-28 -12 -37 -12 -30 0 3 6 16 10 28 9 21 0 21 -1 2 -9z
m-70 -20 c-28 -12 -37 -12 -30 0 3 6 16 10 28 9 21 0 21 -1 2 -9z m-70 -20
c-28 -12 -37 -12 -30 0 3 6 16 10 28 9 21 0 21 -1 2 -9z m-78 -48 c-10 -10
-18 -27 -18 -38 -1 -18 -2 -18 -6 -1 -4 16 21 57 35 57 3 0 -2 -8 -11 -18z
m-20 -94 c-3 -7 -5 -2 -5 12 0 14 2 19 5 13 2 -7 2 -19 0 -25z m2579 -80 l29
-33 -32 29 c-31 28 -38 36 -30 36 2 0 16 -15 33 -32z m-2539 -70 c-3 -7 -5 -2
-5 12 0 14 2 19 5 13 2 -7 2 -19 0 -25z m335 15 c40 -36 8 -113 -47 -113 -54
0 -85 71 -48 112 20 22 70 23 95 1z m2293 -43 l49 -55 -52 50 c-29 27 -52 54
-52 59 0 5 1 7 3 5 2 -2 25 -29 52 -59z m-592 -20 c59 -18 176 -94 185 -120 2
-6 -123 -11 -315 -13 l-318 -3 320 -1 c177 -1 328 -5 337 -8 46 -18 114 -227
103 -320 -10 -81 -64 -201 -117 -260 -92 -102 -258 -159 -395 -136 -163 28
-280 120 -340 267 -43 106 -49 154 -28 250 29 131 68 191 179 280 100 79 255
105 389 64z m-2016 -22 c-3 -8 -6 -5 -6 6 -1 11 2 17 5 13 3 -3 4 -12 1 -19z
m2718 -78 c21 -22 37 -40 34 -40 -3 0 -23 18 -44 40 -21 22 -37 40 -34 40 3 0
23 -18 44 -40z m-2695 15 c0 -8 -4 -15 -10 -15 -5 0 -7 7 -4 15 4 8 8 15 10
15 2 0 4 -7 4 -15z m-37 -10 c-3 -9 -8 -14 -10 -11 -3 3 -2 9 2 15 9 16 15 13
8 -4z m394 -77 c28 -26 30 -61 3 -88 -29 -29 -74 -26 -99 7 -24 30 -20 58 11
86 27 23 57 22 85 -5z m2443 -43 l45 -50 -47 45 c-27 24 -48 48 -48 54 0 5 1
7 3 5 1 -2 22 -27 47 -54z m-2770 30 c0 -8 -2 -15 -4 -15 -2 0 -6 7 -10 15 -3
8 -1 15 4 15 6 0 10 -7 10 -15z m19 -68 c1 -5 -3 -5 -9 -2 -5 3 -10 16 -9 28
0 21 1 21 9 2 5 -11 9 -24 9 -28z m2826 -47 l20 -25 -22 19 c-13 11 -23 24
-23 29 0 6 1 8 3 6 1 -2 11 -15 22 -29z m-2812 0 c3 -11 1 -18 -4 -14 -5 3 -9
12 -9 20 0 20 7 17 13 -6z m2867 -55 c13 -14 21 -25 18 -25 -2 0 -15 11 -28
25 -13 14 -21 25 -18 25 2 0 15 -11 28 -25z m-2841 -38 c1 -5 -3 -5 -9 -2 -5
3 -10 16 -9 28 0 21 1 21 9 2 5 -11 9 -24 9 -28z m3246 -5 c-3 -3 -11 0 -18 7
-9 10 -8 11 6 5 10 -3 15 -9 12 -12z m-305 -68 c13 -16 3 -9 -23 16 -26 24
-47 48 -47 53 0 8 28 -19 70 -69z m-2606 45 c35 -28 33 -73 -6 -102 -24 -18
-30 -18 -57 -7 -50 20 -55 95 -9 118 33 16 42 14 72 -9z m-315 -44 c0 -5 -4
-3 -9 5 -5 8 -9 22 -9 30 0 16 17 -16 18 -35z m8 -47 c-3 -8 -6 -5 -6 6 -1 11
2 17 5 13 3 -3 4 -12 1 -19z m3011 -59 c32 -39 23 -37 -19 7 -18 19 -27 32
-19 29 8 -4 25 -20 38 -36z m-2991 -11 c-3 -8 -6 -5 -6 6 -1 11 2 17 5 13 3
-3 4 -12 1 -19z m2304 -152 c-4 -88 -10 -141 -17 -143 -6 -2 -28 17 -48 42
l-37 45 21 30 c19 27 59 109 74 154 4 10 8 17 9 15 2 -2 1 -67 -2 -143z
m-2330 117 c13 -16 12 -17 -3 -4 -10 7 -18 15 -18 17 0 8 8 3 21 -13z m58 -58
c0 -5 -4 -3 -9 5 -5 8 -9 22 -9 30 0 16 17 -16 18 -35z m330 9 c12 -15 21 -32
21 -39 0 -27 -41 -65 -70 -65 -29 0 -70 38 -70 65 0 27 41 65 70 65 19 0 36
-9 49 -26z m2736 -24 c21 -22 37 -40 34 -40 -3 0 -23 18 -44 40 -21 22 -37 40
-34 40 3 0 23 -18 44 -40z m-3046 -55 c0 -5 -4 -3 -9 5 -5 8 -9 22 -9 30 0 16
17 -16 18 -35z m13 -77 c-4 -4 -9 7 -9 25 -2 30 -2 31 8 8 5 -14 6 -28 1 -33z
m15 -50 c-3 -7 -5 -2 -5 12 0 14 2 19 5 13 2 -7 2 -19 0 -25z m350 -40 c28
-26 30 -61 3 -88 -29 -29 -74 -26 -99 7 -24 30 -20 58 11 86 27 23 57 22 85
-5z m-323 -33 c5 -22 4 -26 -4 -15 -5 8 -10 24 -10 34 0 26 6 18 14 -19z m18
-60 c3 -13 1 -22 -3 -19 -9 5 -13 44 -5 44 2 0 6 -11 8 -25z m2166 -55 c-7
-10 -14 -17 -17 -15 -4 4 18 35 25 35 2 0 -1 -9 -8 -20z m177 -102 l120 -123
-125 120 c-68 66 -126 121 -129 123 -2 1 0 2 5 2 5 0 63 -55 129 -122z m-2328
90 c-3 -8 -6 -5 -6 6 -1 11 2 17 5 13 3 -3 4 -12 1 -19z m20 -70 c-3 -8 -6 -5
-6 6 -1 11 2 17 5 13 3 -3 4 -12 1 -19z m26 -78 c3 -11 1 -18 -4 -14 -5 3 -9
12 -9 20 0 20 7 17 13 -6z m14 -62 c-3 -8 -6 -5 -6 6 -1 11 2 17 5 13 3 -3 4
-12 1 -19z m2483 -93 c47 -47 82 -85 80 -85 -3 0 -43 38 -90 85 -47 47 -82 85
-80 85 3 0 43 -38 90 -85z m-2458 20 c3 -16 1 -25 -7 -25 -8 0 -10 9 -7 25 2
14 6 25 7 25 1 0 5 -11 7 -25z m32 -111 c10 -37 2 -39 -11 -4 -6 17 -8 30 -3
30 4 0 11 -12 14 -26z m2552 -36 l29 -33 -32 29 c-31 28 -38 36 -30 36 2 0 16
-15 33 -32z m-2524 -63 c3 -13 1 -22 -3 -19 -9 5 -13 44 -5 44 2 0 6 -11 8
-25z m2555 -7 c-3 -7 -5 -2 -5 12 0 14 2 19 5 13 2 -7 2 -19 0 -25z m-12 -28
c-3 -5 -12 -10 -18 -10 -7 0 -6 4 3 10 19 12 23 12 15 0z m-2400 -122 l90 -93
-91 85 c-79 73 -103 100 -91 100 1 0 43 -42 92 -92z m126 -125 c13 -16 12 -17
-3 -4 -17 13 -22 21 -14 21 2 0 10 -8 17 -17z m164 -153 c52 -54 41 -56 -14
-2 -24 23 -40 42 -35 42 6 0 27 -18 49 -40z m225 -227 l175 -177 -165 159
c-90 88 -170 165 -177 172 -12 10 -17 23 -10 23 1 0 81 -80 177 -177z m-99 14
c-10 -9 -11 -8 -5 6 3 10 9 15 12 12 3 -3 0 -11 -7 -18z"/>
<path d="M1920 2799 c-6 -11 -9 -28 -7 -37 4 -13 5 -11 6 5 0 12 8 29 17 37 8
9 11 16 5 16 -6 0 -15 -9 -21 -21z"/>
<path d="M2021 2764 c0 -11 3 -14 6 -6 3 7 2 16 -1 19 -3 4 -6 -2 -5 -13z"/>
<path d="M1929 2728 c7 -10 26 -18 41 -18 15 0 34 8 41 18 11 14 11 15 -1 5
-8 -7 -26 -13 -40 -13 -14 0 -32 6 -40 13 -12 10 -12 9 -1 -5z"/>
<path d="M1927 2542 c-10 -10 -17 -28 -17 -39 0 -20 28 -53 46 -53 4 0 -2 7
-14 16 -28 20 -28 58 0 78 12 9 18 16 12 16 -6 0 -18 -8 -27 -18z"/>
<path d="M1980 2556 c0 -2 7 -7 16 -10 8 -3 12 -2 9 4 -6 10 -25 14 -25 6z"/>
<path d="M1958 2313 c6 -2 18 -2 25 0 6 3 1 5 -13 5 -14 0 -19 -2 -12 -5z"/>
<path d="M1912 2260 c0 -14 2 -19 5 -12 2 6 2 18 0 25 -3 6 -5 1 -5 -13z"/>
<path d="M2002 2224 c-7 -8 -8 -14 -3 -14 10 0 25 19 20 25 -2 1 -10 -3 -17
-11z"/>
<path d="M1927 2219 c7 -7 15 -10 18 -7 3 3 -2 9 -12 12 -14 6 -15 5 -6 -5z"/>
<path d="M1925 2040 c-3 -6 1 -7 9 -4 18 7 21 14 7 14 -6 0 -13 -4 -16 -10z"/>
<path d="M2004 2034 c9 -8 17 -25 17 -37 1 -16 2 -18 6 -5 5 20 -13 58 -28 58
-6 0 -3 -7 5 -16z"/>
<path d="M2140 2021 c0 -11 4 -22 9 -25 4 -3 6 6 3 19 -5 30 -12 33 -12 6z"/>
<path d="M1912 2000 c0 -14 2 -19 5 -12 2 6 2 18 0 25 -3 6 -5 1 -5 -13z"/>
<path d="M1958 1943 c6 -2 18 -2 25 0 6 3 1 5 -13 5 -14 0 -19 -2 -12 -5z"/>
<path d="M1927 1792 c-23 -26 -21 -55 6 -78 22 -19 22 -19 5 2 -24 28 -22 60
4 78 12 9 18 16 12 16 -6 0 -18 -8 -27 -18z"/>
<path d="M1981 1807 c2 -1 13 -9 24 -17 19 -14 19 -14 6 3 -7 9 -18 17 -24 17
-6 0 -8 -1 -6 -3z"/>
<path d="M2358 1803 c106 -2 277 -2 380 0 103 1 16 2 -193 2 -209 0 -293 -1
-187 -2z"/>
<path d="M2147 1793 c-11 -11 -8 -48 5 -61 17 -17 769 -17 786 0 7 7 12 21 11
33 -1 17 -2 16 -8 -5 l-7 -25 -389 0 -390 0 0 33 c0 17 0 32 -1 32 0 0 -4 -3
-7 -7z"/>
<path d="M2021 1754 c0 -11 3 -14 6 -6 3 7 2 16 -1 19 -3 4 -6 -2 -5 -13z"/>
<path d="M1996 1715 c-11 -8 -15 -15 -9 -15 6 0 16 7 23 15 16 19 11 19 -14 0z"/>
<path d="M2513 2063 c59 -2 155 -2 215 0 59 1 10 3 -108 3 -118 0 -167 -2
-107 -3z"/>
</g>
</svg>
